<svg width="326" height="196" viewBox="0 0 326 196" fill="none" xmlns="http://www.w3.org/2000/svg">
<path fill-rule="evenodd" clip-rule="evenodd" d="M121 7H206V40H213V7V0H206H121H114V7V40H121V7ZM121 148H114V189V196H121H206H213V189V148H206V189H121V148Z" fill="#FF4C4C"/>
<path d="M34.254 88.668V97.71H15.378V107.478H29.502V116.256H15.378V135H4.092V88.668H34.254ZM51.4718 97.71V107.082H66.5858V115.794H51.4718V125.958H68.5658V135H40.1858V88.668H68.5658V97.71H51.4718ZM104.735 126.816H87.4428L84.6708 135H72.8568L89.6208 88.668H102.689L119.453 135H107.507L104.735 126.816ZM101.831 118.104L96.0888 101.142L90.4128 118.104H101.831ZM157.885 88.668V97.71H145.609V135H134.323V97.71H122.047V88.668H157.885ZM174.637 88.668V116.388C174.637 119.16 175.319 121.294 176.683 122.79C178.047 124.286 180.049 125.034 182.689 125.034C185.329 125.034 187.353 124.286 188.761 122.79C190.169 121.294 190.873 119.16 190.873 116.388V88.668H202.159V116.322C202.159 120.458 201.279 123.956 199.519 126.816C197.759 129.676 195.383 131.832 192.391 133.284C189.443 134.736 186.143 135.462 182.491 135.462C178.839 135.462 175.561 134.758 172.657 133.35C169.797 131.898 167.531 129.742 165.859 126.882C164.187 123.978 163.351 120.458 163.351 116.322V88.668H174.637ZM233.712 135L224.076 117.51H221.37V135H210.084V88.668H229.026C232.678 88.668 235.78 89.306 238.332 90.582C240.928 91.858 242.864 93.618 244.14 95.862C245.416 98.062 246.054 100.526 246.054 103.254C246.054 106.334 245.174 109.084 243.414 111.504C241.698 113.924 239.146 115.64 235.758 116.652L246.45 135H233.712ZM221.37 109.524H228.366C230.434 109.524 231.974 109.018 232.986 108.006C234.042 106.994 234.57 105.564 234.57 103.716C234.57 101.956 234.042 100.57 232.986 99.558C231.974 98.546 230.434 98.04 228.366 98.04H221.37V109.524ZM264.425 97.71V107.082H279.539V115.794H264.425V125.958H281.519V135H253.139V88.668H281.519V97.71H264.425ZM305.61 135.462C302.222 135.462 299.186 134.912 296.502 133.812C293.818 132.712 291.662 131.084 290.034 128.928C288.45 126.772 287.614 124.176 287.526 121.14H299.538C299.714 122.856 300.308 124.176 301.32 125.1C302.332 125.98 303.652 126.42 305.28 126.42C306.952 126.42 308.272 126.046 309.24 125.298C310.208 124.506 310.692 123.428 310.692 122.064C310.692 120.92 310.296 119.974 309.504 119.226C308.756 118.478 307.81 117.862 306.666 117.378C305.566 116.894 303.982 116.344 301.914 115.728C298.922 114.804 296.48 113.88 294.588 112.956C292.696 112.032 291.068 110.668 289.704 108.864C288.34 107.06 287.658 104.706 287.658 101.802C287.658 97.49 289.22 94.124 292.344 91.704C295.468 89.24 299.538 88.008 304.554 88.008C309.658 88.008 313.772 89.24 316.896 91.704C320.02 94.124 321.692 97.512 321.912 101.868H309.702C309.614 100.372 309.064 99.206 308.052 98.37C307.04 97.49 305.742 97.05 304.158 97.05C302.794 97.05 301.694 97.424 300.858 98.172C300.022 98.876 299.604 99.91 299.604 101.274C299.604 102.77 300.308 103.936 301.716 104.772C303.124 105.608 305.324 106.51 308.316 107.478C311.308 108.49 313.728 109.458 315.576 110.382C317.468 111.306 319.096 112.648 320.46 114.408C321.824 116.168 322.506 118.434 322.506 121.206C322.506 123.846 321.824 126.244 320.46 128.4C319.14 130.556 317.204 132.272 314.652 133.548C312.1 134.824 309.086 135.462 305.61 135.462Z" fill="#FF4C4C"/>
<path d="M114.644 52.878C116.62 52.878 118.327 53.2507 119.766 53.996C121.222 54.724 122.331 55.7727 123.094 57.142C123.874 58.5113 124.264 60.1233 124.264 61.978C124.264 63.8327 123.874 65.4447 123.094 66.814C122.331 68.166 121.222 69.206 119.766 69.934C118.327 70.6447 116.62 71 114.644 71H109.002V52.878H114.644ZM114.644 69.05C116.984 69.05 118.769 68.4347 120 67.204C121.231 65.956 121.846 64.214 121.846 61.978C121.846 59.7247 121.222 57.9653 119.974 56.7C118.743 55.4347 116.967 54.802 114.644 54.802H111.368V69.05H114.644ZM138.097 66.97H130.193L128.737 71H126.241L132.793 52.982H135.523L142.049 71H139.553L138.097 66.97ZM137.421 65.046L134.145 55.894L130.869 65.046H137.421ZM159.152 71H156.786L147.27 56.57V71H144.904V52.852H147.27L156.786 67.256V52.852H159.152V71ZM174.34 52.878V54.802H169.4V71H167.034V54.802H162.068V52.878H174.34ZM179.618 52.878V71H177.252V52.878H179.618ZM191.866 71.182C190.185 71.182 188.651 70.792 187.264 70.012C185.878 69.2147 184.777 68.114 183.962 66.71C183.165 65.2887 182.766 63.694 182.766 61.926C182.766 60.158 183.165 58.572 183.962 57.168C184.777 55.7467 185.878 54.646 187.264 53.866C188.651 53.0687 190.185 52.67 191.866 52.67C193.565 52.67 195.108 53.0687 196.494 53.866C197.881 54.646 198.973 55.738 199.77 57.142C200.568 58.546 200.966 60.1407 200.966 61.926C200.966 63.7113 200.568 65.306 199.77 66.71C198.973 68.114 197.881 69.2147 196.494 70.012C195.108 70.792 193.565 71.182 191.866 71.182ZM191.866 69.128C193.132 69.128 194.267 68.8333 195.272 68.244C196.295 67.6547 197.092 66.814 197.664 65.722C198.254 64.63 198.548 63.3647 198.548 61.926C198.548 60.47 198.254 59.2047 197.664 58.13C197.092 57.038 196.304 56.1973 195.298 55.608C194.293 55.0187 193.149 54.724 191.866 54.724C190.584 54.724 189.44 55.0187 188.434 55.608C187.429 56.1973 186.632 57.038 186.042 58.13C185.47 59.2047 185.184 60.47 185.184 61.926C185.184 63.3647 185.47 64.63 186.042 65.722C186.632 66.814 187.429 67.6547 188.434 68.244C189.457 68.8333 190.601 69.128 191.866 69.128ZM218.338 71H215.972L206.456 56.57V71H204.09V52.852H206.456L215.972 67.256V52.852H218.338V71Z" fill="#FF4C4C"/>
</svg>
